# xmcd
#
# Track frame offsets:
#	150
#	17082
#	30300
#	46720
#	68005
#	80955
#	102415
#	123162
#	141812
#	162782
#
# Disc length: 2388 seconds
#
# Revision: 1
# Processed by: cddbd v1.5.1PL0 Copyright (c) Steve Scherf et al.
# Submitted via: EasyCDDAExtractor 7.0.6.1
#
DISCID=7709520a
DTITLE=Frankie Lee - The Ladies and the Babies
DYEAR=1997
DGENRE=Blues
TTITLE0=The ladies and the babies
TTITLE1=The woman don't live here no more
TTITLE2=Lu ann
TTITLE3=Face it
TTITLE4=Stoned, cold, and blue
TTITLE5=Nasty stuff
TTITLE6=Don't make me go home
TTITLE7=My first million tears
TTITLE8=It,s cold out here
TTITLE9=Steppin' in the shoes of a fool
EXTD=
EXTT0=
EXTT1=
EXTT2=
EXTT3=
EXTT4=
EXTT5=
EXTT6=
EXTT7=
EXTT8=
EXTT9=
PLAYORDER=
